HIERARCHY
ROOT hips
{
  OFFSET 0 10.680822821525009 1.3929502295107734
  CHANNELS 6 Xposition Yposition Zposition Yrotation Xrotation Zrotation
  JOINT spine
  {
    OFFSET -7.042017322922631e-31 0.6058489940359625 0
    CHANNELS 3 Yrotation Xrotation Zrotation
    JOINT chest
    {
      OFFSET 0 1.2699794144455032 0
      CHANNELS 3 Yrotation Xrotation Zrotation
      JOINT upperChest
      {
        OFFSET 0 1.217799211677689 0
        CHANNELS 3 Yrotation Xrotation Zrotation
        JOINT neck
        {
          OFFSET 0 1.5248826104153006 0
          CHANNELS 3 Yrotation Xrotation Zrotation
          JOINT head
          {
            OFFSET 0 0.8197772727844447 0
            CHANNELS 3 Yrotation Xrotation Zrotation
            JOINT leftEye
            {
              OFFSET 0.2793952361220866 0.6769952096623495 0.1830357412467788
              CHANNELS 3 Yrotation Xrotation Zrotation
              End Site
              {
                OFFSET 0.2793952361220866 0.6769952096623495 0.1830357412467788
              }
            }
            JOINT rightEye
            {
              OFFSET -0.27939522230689573 0.676995205357064 0.18303631459760622
              CHANNELS 3 Yrotation Xrotation Zrotation
              End Site
              {
                OFFSET -0.27939522230689573 0.676995205357064 0.18303631459760622
              }
            }
          }
        }
        JOINT leftShoulder
        {
          OFFSET 0.41486978509200423 1.1670505408695453 0
          CHANNELS 3 Yrotation Xrotation Zrotation
          JOINT leftUpperArm
          {
            OFFSET 0.9737926108153417 0 0
            CHANNELS 3 Yrotation Xrotation Zrotation
            JOINT leftLowerArm
            {
              OFFSET 2.5269332222665284 0 0
              CHANNELS 3 Yrotation Xrotation Zrotation
              JOINT leftHand
              {
                OFFSET 2.4263782738425914 0 0
                CHANNELS 3 Yrotation Xrotation Zrotation
                JOINT leftIndexProximal
                {
                  OFFSET 0.724320348022514 0.08170607082582437 0.20360061616140124
                  CHANNELS 3 Yrotation Xrotation Zrotation
                  JOINT leftIndexIntermediate
                  {
                    OFFSET 0.36548960630744587 -0.010566596513783999 -0.01414783573280308
                    CHANNELS 3 Yrotation Xrotation Zrotation
                    JOINT leftIndexDistal
                    {
                      OFFSET 0.22502819650693362 -0.007863819831430696 -0.007567681939621526
                      CHANNELS 3 Yrotation Xrotation Zrotation
                      End Site
                      {
                        OFFSET 0.22502819650693362 -0.007863819831430696 -0.007567681939621526
                      }
                    }
                  }
                }
                JOINT leftLittleProximal
                {
                  OFFSET 0.6720322998298205 0.08170601055037707 -0.3230036039466837
                  CHANNELS 3 Yrotation Xrotation Zrotation
                  JOINT leftLittleIntermediate
                  {
                    OFFSET 0.34583592281688713 5.476543019078406e-8 1.3869203337180114e-7
                    CHANNELS 3 Yrotation Xrotation Zrotation
                    JOINT leftLittleDistal
                    {
                      OFFSET 0.19925728062053938 0.003098047439490381 0.0038303983709246925
                      CHANNELS 3 Yrotation Xrotation Zrotation
                      End Site
                      {
                        OFFSET 0.19925728062053938 0.003098047439490381 0.0038303983709246925
                      }
                    }
                  }
                }
                JOINT leftMiddleProximal
                {
                  OFFSET 0.7300436596551069 0.0817073395107144 0.022661722987926763
                  CHANNELS 3 Yrotation Xrotation Zrotation
                  JOINT leftMiddleIntermediate
                  {
                    OFFSET 0.40758254347686607 -0.0000012383587111308714 2.408460318820138e-7
                    CHANNELS 3 Yrotation Xrotation Zrotation
                    JOINT leftMiddleDistal
                    {
                      OFFSET 0.2514490105498507 0.0000013869132886590307 9.738618134136345e-8
                      CHANNELS 3 Yrotation Xrotation Zrotation
                      End Site
                      {
                        OFFSET 0.2514490105498507 0.0000013869132886590307 9.738618134136345e-8
                      }
                    }
                  }
                }
                JOINT leftRingProximal
                {
                  OFFSET 0.7217261161191838 0.08170601902187746 -0.15043395722184966
                  CHANNELS 3 Yrotation Xrotation Zrotation
                  JOINT leftRingIntermediate
                  {
                    OFFSET 0.37808807487521556 0.0000013754022405443322 2.2046919317952884e-7
                    CHANNELS 3 Yrotation Xrotation Zrotation
                    JOINT leftRingDistal
                    {
                      OFFSET 0.21812105442344254 -0.002713483731960231 -0.004991354517454624
                      CHANNELS 3 Yrotation Xrotation Zrotation
                      End Site
                      {
                        OFFSET 0.21812105442344254 -0.002713483731960231 -0.004991354517454624
                      }
                    }
                  }
                }
                JOINT leftThumbProximal
                {
                  OFFSET 0.10793587079521427 -0.1652791240518252 -0.07775251827190094
                  CHANNELS 3 Yrotation Xrotation Zrotation
                  JOINT leftThumbIntermediate
                  {
                    OFFSET 0.40355819082296684 -0.017484006740276614 0.3177776014416309
                    CHANNELS 3 Yrotation Xrotation Zrotation
                    JOINT leftThumbDistal
                    {
                      OFFSET 0.2318764658022603 -0.018510186824293617 0.21396001800186287
                      CHANNELS 3 Yrotation Xrotation Zrotation
                      End Site
                      {
                        OFFSET 0.2318764658022603 -0.018510186824293617 0.21396001800186287
                      }
                    }
                  }
                }
              }
            }
          }
        }
        JOINT rightShoulder
        {
          OFFSET -0.4148697850920044 1.1670505408695453 0
          CHANNELS 3 Yrotation Xrotation Zrotation
          JOINT rightUpperArm
          {
            OFFSET -0.9737926108153414 0 0
            CHANNELS 3 Yrotation Xrotation Zrotation
            JOINT rightLowerArm
            {
              OFFSET -2.5269332222665293 0 0
              CHANNELS 3 Yrotation Xrotation Zrotation
              JOINT rightHand
              {
                OFFSET -2.42637827384259 0 0
                CHANNELS 3 Yrotation Xrotation Zrotation
                JOINT rightIndexProximal
                {
                  OFFSET -0.724320348022514 0.08170607082582437 0.20360061616140124
                  CHANNELS 3 Yrotation Xrotation Zrotation
                  JOINT rightIndexIntermediate
                  {
                    OFFSET -0.36548960630744587 -0.010566596513783999 -0.01414783573280308
                    CHANNELS 3 Yrotation Xrotation Zrotation
                    JOINT rightIndexDistal
                    {
                      OFFSET -0.22502819650693362 -0.007863819831430696 -0.007567681939621526
                      CHANNELS 3 Yrotation Xrotation Zrotation
                      End Site
                      {
                        OFFSET -0.22502819650693362 -0.007863819831430696 -0.007567681939621526
                      }
                    }
                  }
                }
                JOINT rightLittleProximal
                {
                  OFFSET -0.6720322998298205 0.08170601055037707 -0.3230036039466837
                  CHANNELS 3 Yrotation Xrotation Zrotation
                  JOINT rightLittleIntermediate
                  {
                    OFFSET -0.34583592281688713 5.476543019078406e-8 1.3869203337180114e-7
                    CHANNELS 3 Yrotation Xrotation Zrotation
                    JOINT rightLittleDistal
                    {
                      OFFSET -0.19925728062053938 0.003098047439490381 0.0038303983709246925
                      CHANNELS 3 Yrotation Xrotation Zrotation
                      End Site
                      {
                        OFFSET -0.19925728062053938 0.003098047439490381 0.0038303983709246925
                      }
                    }
                  }
                }
                JOINT rightMiddleProximal
                {
                  OFFSET -0.7300436596551069 0.0817073395107144 0.022661722987926763
                  CHANNELS 3 Yrotation Xrotation Zrotation
                  JOINT rightMiddleIntermediate
                  {
                    OFFSET -0.40758254347686607 -0.0000012383587111308714 2.408460318820138e-7
                    CHANNELS 3 Yrotation Xrotation Zrotation
                    JOINT rightMiddleDistal
                    {
                      OFFSET -0.2514490105498507 0.0000013869132886590307 9.738618134136345e-8
                      CHANNELS 3 Yrotation Xrotation Zrotation
                      End Site
                      {
                        OFFSET -0.2514490105498507 0.0000013869132886590307 9.738618134136345e-8
                      }
                    }
                  }
                }
                JOINT rightRingProximal
                {
                  OFFSET -0.7217261161191838 0.08170601902187746 -0.15043395722184966
                  CHANNELS 3 Yrotation Xrotation Zrotation
                  JOINT rightRingIntermediate
                  {
                    OFFSET -0.37808807487521556 0.0000013754022405443322 2.2046919317952884e-7
                    CHANNELS 3 Yrotation Xrotation Zrotation
                    JOINT rightRingDistal
                    {
                      OFFSET -0.21812105442344254 -0.002713483731960231 -0.004991354517454624
                      CHANNELS 3 Yrotation Xrotation Zrotation
                      End Site
                      {
                        OFFSET -0.21812105442344254 -0.002713483731960231 -0.004991354517454624
                      }
                    }
                  }
                }
                JOINT rightThumbProximal
                {
                  OFFSET -0.10793587079521427 -0.1652791240518252 -0.07775251827190094
                  CHANNELS 3 Yrotation Xrotation Zrotation
                  JOINT rightThumbIntermediate
                  {
                    OFFSET -0.40355819082296684 -0.017484006740276614 0.3177776014416309
                    CHANNELS 3 Yrotation Xrotation Zrotation
                    JOINT rightThumbDistal
                    {
                      OFFSET -0.2318764658022603 -0.018510186824293617 0.21396001800186287
                      CHANNELS 3 Yrotation Xrotation Zrotation
                      End Site
                      {
                        OFFSET -0.2318764658022603 -0.018510186824293617 0.21396001800186287
                      }
                    }
                  }
                }
              }
            }
          }
        }
      }
    }
  }
  JOINT leftUpperLeg
  {
    OFFSET 0.8486251390888677 -0.4421577294694363 0
    CHANNELS 3 Yrotation Xrotation Zrotation
    JOINT leftLowerLeg
    {
      OFFSET 0 -4.10147812638609 0
      CHANNELS 3 Yrotation Xrotation Zrotation
      JOINT leftFoot
      {
        OFFSET -0.0002543926476658853 -4.77292286812444 0.007402811231737388
        CHANNELS 3 Yrotation Xrotation Zrotation
        JOINT leftToes
        {
          OFFSET 0 -0.7027875951174846 1.2062924140498823
          CHANNELS 3 Yrotation Xrotation Zrotation
          End Site
          {
            OFFSET 0 -0.7027875951174846 1.2062924140498823
          }
        }
      }
    }
  }
  JOINT rightUpperLeg
  {
    OFFSET -0.8486251390888677 -0.4421577294694363 0
    CHANNELS 3 Yrotation Xrotation Zrotation
    JOINT rightLowerLeg
    {
      OFFSET 0 -4.10147812638609 0
      CHANNELS 3 Yrotation Xrotation Zrotation
      JOINT rightFoot
      {
        OFFSET 0.0002543926476658853 -4.77292286812444 0.007402811231737388
        CHANNELS 3 Yrotation Xrotation Zrotation
        JOINT rightToes
        {
          OFFSET 0 -0.7027875951174846 1.2062924140498823
          CHANNELS 3 Yrotation Xrotation Zrotation
          End Site
          {
            OFFSET 0 -0.7027875951174846 1.2062924140498823
          }
        }
      }
    }
  }
}
MOTION
Frames: 4
Frame Time: 0.03333333333333333
0.15251167118549347 -8.76132533159581 0.0028331356588751078 -167.30959870139807 -68.85735233726244 156.39758378087876 -2.3702711617746726 25.34410109479125 -2.0003591354538646 -5.424773214209463 40.88268376687682 -1.4659183372040472 0 0 0 -1.8733834337635207 14.916721699218984 -4.536301635352293 -11.623850092930603 17.13863027209834 -8.438150517356 0 0 0 0 0 0 -24.266509106968538 4.430083770078059 6.729339260320903 -14.20593921613765 -68.11444138071494 -46.09760289075972 -121.76822977440172 1.129816388930973 0.6292680727878089 -38.87068477602704 -16.438491654727112 33.69316742517254 5.45931295405325 1.1906942900993 -40.41365248759311 2.7044959718918946 0.7714749819267037 -31.839574069692187 1.7190991378833806 0.2968971121013212 -19.59722340081187 12.25351343207386 3.316009141381329 -44.97620299313748 2.3852696007000325 0.5888052736703888 -27.73053732801615 0.8948778067622907 0.07872771999392453 -10.056286056740106 8.779990582425338 3.542114716155958 -35.99595388027227 3.422673987529394 1.3097581253793225 -41.87303086327584 2.023506846014697 0.41632287661332745 -23.25191154610989 8.091488270583593 2.9332489011684233 -34.61191309192936 2.985540112018009 0.9590909675509594 -35.61387850626371 2.1357071043943034 0.46612094277572796 -24.623278512011897 -5.776268875616956 0.6587782030003072 19.22948386925103 27.822854375748317 17.082753518682033 7.416981562142763 -0.9314094769804755 3.268968178594766 3.92284864559839 20.47662622768894 4.066267785450724 -0.36563559398969514 56.15088304954952 -57.495726078221146 -17.836114453949364 120.2882928614315 1.1133798045552914 -0.6390823104029273 -4.702371241131406 -21.726822376007895 -14.986851416655252 -3.022810020495776 0.2068277019630467 18.92981024190787 -1.9095143451968073 0.4960133591676887 29.11969619652561 -1.0565578728850944 0.14494303868288094 15.62239599518694 -0.6553280568548768 -2.4284825809796007 39.44477876845435 -1.9437984163744961 0.5153343690198502 29.69398760358825 -0.9205820544571592 0.10953521680134025 13.570520956458852 -0.9474393900285633 -0.7527202380475403 21.285259414587543 -2.344506385379413 0.7774463400576045 36.68659780248915 -1.8613005028076435 0.46959789178620126 28.31734372827865 -2.2040880244899665 -1.101428689994901 38.59624112966734 -1.5098393551780436 0.302145703949664 22.631778802983202 -1.415118597841976 0.26409502857094724 21.141492272334528 -4.233486882350746 -22.659424409284746 -15.568850738646036 -21.22185330407199 12.813775987052395 -11.46590757092963 -34.083461013472025 1.0991570197880947 -30.062363434329892 7.488786378753472 -24.046607994968422 11.118353934497906 -25.393055559218958 80.25443987227439 -22.80232392393313 4.06211076480803 -17.07973995574161 -10.495785070737915 -2.5679940986986165e-7 0.012616175753259982 0.000008749813609565363 -62.54368631522388 -71.67363974603884 70.64440043593453 -166.60976414135055 69.28431965413834 -165.62804651163142 2.37672844858797 -26.455387498967415 1.2961678325483716 -0.0000016129521470864365 -1.132525834005699 -0.0000027818261666669356
0.12755006551742554 -8.810615511802109 0.041252415627241135 -168.28745819027145 -68.18703483503351 158.09251982027925 -1.902876200254221 25.978013847380918 -1.2200989563312732 -4.56015652506275 40.195917700797594 -1.1853202675240269 0 0 0 -1.6441950757601946 14.960709238342222 -4.200577984995622 -9.006601141759413 17.293629648004597 -9.42356755745959 0 0 0 0 0 0 -20.276619616200342 4.465396753285894 7.401387022266038 -14.993146829005289 -67.49423151215947 -46.4778787561973 -122.12344966184607 1.1337198565013227 0.6268421489342092 -38.373068282154165 -15.797602475466729 33.927101264184046 5.45931295405325 1.1906942900993 -40.41365248759311 2.7044959718918946 0.7714749819267037 -31.839574069692187 1.7190991378833806 0.2968971121013212 -19.59722340081187 12.25351343207386 3.316009141381329 -44.97620299313748 2.3852696007000325 0.5888052736703888 -27.73053732801615 0.8948778067622907 0.07872771999392453 -10.056286056740106 8.779990582425338 3.542114716155958 -35.99595388027227 3.422673987529394 1.3097581253793225 -41.87303086327584 2.023506846014697 0.41632287661332745 -23.25191154610989 8.091488270583593 2.9332489011684233 -34.61191309192936 2.985540112018009 0.9590909675509594 -35.61387850626371 2.1357071043943034 0.46612094277572796 -24.623278512011897 -5.776268875616956 0.6587782030003072 19.22948386925103 27.822854375748317 17.082753518682033 7.416981562142763 -0.9314094769804755 3.268968178594766 3.92284864559839 22.227908780985675 3.9248520242094647 0.0735580987500168 55.7112385747071 -57.20330064593072 -15.661712156426537 119.52792067289154 1.1048670468612338 -0.6439948464263464 -3.3120447471208787 -21.391156310806682 -14.85955355962055 -3.022810020495776 0.2068277019630467 18.92981024190787 -1.9095143451968073 0.4960133591676887 29.11969619652561 -1.0565578728850944 0.14494303868288094 15.62239599518694 -0.6553280568548768 -2.4284825809796007 39.44477876845435 -1.9437984163744961 0.5153343690198502 29.69398760358825 -0.9205820544571592 0.10953521680134025 13.570520956458852 -0.9474393900285633 -0.7527202380475403 21.285259414587543 -2.344506385379413 0.7774463400576045 36.68659780248915 -1.8613005028076435 0.46959789178620126 28.31734372827865 -2.2040880244899665 -1.101428689994901 38.59624112966734 -1.5098393551780436 0.302145703949664 22.631778802983202 -1.415118597841976 0.26409502857094724 21.141492272334528 -4.233486882350746 -22.659424409284746 -15.568850738646036 -21.22185330407199 12.813775987052395 -11.46590757092963 -34.083461013472025 1.0991570197880947 -30.062363434329892 4.98059193169545 -32.72501657876722 11.308837411866598 -162.03461187783242 78.78581064766672 -160.24473170923955 3.864043715131539 -19.179232258346076 -9.518034734547385 0.0000028814904327468894 0.5540474332549592 0.000003232622368661933 -33.58236323498174 -66.99034605809896 40.94232239930342 -155.45895738069262 78.68213311254556 -153.03815235832909 3.226981994185283 -26.433536024684738 0.9866785848823918 9.961057290078615e-7 -0.9185226283360999 -1.2079193421326568e-7
0.11763071268796921 -8.826150151160629 0.05232258141040802 -168.94250690851635 -68.02833496355713 159.09444488048732 -1.7155432937030504 26.23278100638766 -0.8933418298788018 -4.190840050402651 40.00832121953087 -0.9952674707718412 0 0 0 -1.5352140481333447 15.031576618961576 -3.969032481257798 -7.800636325092153 17.191217112093714 -9.767867871674449 0 0 0 0 0 0 -18.70836285676801 4.4695685868806105 7.733482858570412 -15.26161123023498 -67.44488221868582 -46.67598470849952 -122.26660702912464 1.1352754168528498 0.6258611999816557 -38.00703933430731 -15.634869992116537 33.74052468272493 5.45931295405325 1.1906942900993 -40.41365248759311 2.7044959718918946 0.7714749819267037 -31.839574069692187 1.7190991378833806 0.2968971121013212 -19.59722340081187 12.25351343207386 3.316009141381329 -44.97620299313748 2.3852696007000325 0.5888052736703888 -27.73053732801615 0.8948778067622907 0.07872771999392453 -10.056286056740106 8.779990582425338 3.542114716155958 -35.99595388027227 3.422673987529394 1.3097581253793225 -41.87303086327584 2.023506846014697 0.41632287661332745 -23.25191154610989 8.091488270583593 2.9332489011684233 -34.61191309192936 2.985540112018009 0.9590909675509594 -35.61387850626371 2.1357071043943034 0.46612094277572796 -24.623278512011897 -5.776268875616956 0.6587782030003072 19.22948386925103 27.822854375748317 17.082753518682033 7.416981562142763 -0.9314094769804755 3.268968178594766 3.92284864559839 22.86420897539324 3.8594767727081014 0.3890720414748195 55.857391746763966 -57.119547146950175 -14.866678515311044 119.1310479796827 1.1003924443913744 -0.6464882089649543 -2.5951645813295787 -21.1418210718625 -14.782853888791731 -3.022810020495776 0.2068277019630467 18.92981024190787 -1.9095143451968073 0.4960133591676887 29.11969619652561 -1.0565578728850944 0.14494303868288094 15.62239599518694 -0.6553280568548768 -2.4284825809796007 39.44477876845435 -1.9437984163744961 0.5153343690198502 29.69398760358825 -0.9205820544571592 0.10953521680134025 13.570520956458852 -0.9474393900285633 -0.7527202380475403 21.285259414587543 -2.344506385379413 0.7774463400576045 36.68659780248915 -1.8613005028076435 0.46959789178620126 28.31734372827865 -2.2040880244899665 -1.101428689994901 38.59624112966734 -1.5098393551780436 0.302145703949664 22.631778802983202 -1.415118597841976 0.26409502857094724 21.141492272334528 -4.233486882350746 -22.659424409284746 -15.568850738646036 -21.22185330407199 12.813775987052395 -11.46590757092963 -34.083461013472025 1.0991570197880947 -30.062363434329892 4.1500296137583215 -35.91507478129404 11.25436813498325 -171.04315751840196 73.03722549224304 -169.5223826001469 3.7280412180540994 -20.18582719092236 -9.064902214198039 0.0000028031615770175564 1.100924977238437 -0.0000013111778253612203 -26.50999025725668 -64.23851842385426 33.5098871650383 -144.16447515782767 81.90483073910222 -141.4187716594546 3.5304427445515167 -26.446152847808012 0.8470316821943822 0.0000014983956762906112 -0.9196754778046877 -0.0000017185711409633446
0.08448798954486847 -8.859385462668808 0.07388641685247421 -171.52523192884638 -67.9358650341004 163.06100182326534 -1.0829200519975235 27.039024515302053 0.18967577291082113 -2.814331461606919 39.620058940720426 -0.1239535570199742 0 0 0 -1.104402066354714 15.599789324182561 -3.1396700015145944 -3.661935062191759 16.387801886028946 -10.432972619467062 0 0 0 0 0 0 -13.941076566031771 4.4002985697370125 8.953371852524858 -16.100700118679736 -67.64754109865983 -47.018243693978214 -122.6704376633732 1.1396819706645764 0.623057600731208 -36.587998385600294 -15.468880958557316 32.743372890178755 5.45931295405325 1.1906942900993 -40.41365248759311 2.7044959718918946 0.7714749819267037 -31.839574069692187 1.7190991378833806 0.2968971121013212 -19.59722340081187 12.25351343207386 3.316009141381329 -44.97620299313748 2.3852696007000325 0.5888052736703888 -27.73053732801615 0.8948778067622907 0.07872771999392453 -10.056286056740106 8.779990582425338 3.542114716155958 -35.99595388027227 3.422673987529394 1.3097581253793225 -41.87303086327584 2.023506846014697 0.41632287661332745 -23.25191154610989 8.091488270583593 2.9332489011684233 -34.61191309192936 2.985540112018009 0.9590909675509594 -35.61387850626371 2.1357071043943034 0.46612094277572796 -24.623278512011897 -5.776268875616956 0.6587782030003072 19.22948386925103 27.822854375748317 17.082753518682033 7.416981562142763 -0.9314094769804755 3.268968178594766 3.92284864559839 25.139474749527274 3.585990266393036 1.6247009388172544 56.37208096775821 -57.32860199622354 -11.9689308159982 117.95471249727717 1.087054710323169 -0.6537628953851435 -0.38066570033974295 -19.894427805298843 -14.129609221087755 -3.022810020495776 0.2068277019630467 18.92981024190787 -1.9095143451968073 0.4960133591676887 29.11969619652561 -1.0565578728850944 0.14494303868288094 15.62239599518694 -0.6553280568548768 -2.4284825809796007 39.44477876845435 -1.9437984163744961 0.5153343690198502 29.69398760358825 -0.9205820544571592 0.10953521680134025 13.570520956458852 -0.9474393900285633 -0.7527202380475403 21.285259414587543 -2.344506385379413 0.7774463400576045 36.68659780248915 -1.8613005028076435 0.46959789178620126 28.31734372827865 -2.2040880244899665 -1.101428689994901 38.59624112966734 -1.5098393551780436 0.302145703949664 22.631778802983202 -1.415118597841976 0.26409502857094724 21.141492272334528 -4.233486882350746 -22.659424409284746 -15.568850738646036 -21.22185330407199 12.813775987052395 -11.46590757092963 -34.083461013472025 1.0991570197880947 -30.062363434329892 2.278288266645738 -46.44474243816369 9.92474416446765 -179.41975159075005 56.64863263205235 -178.05245224445582 3.0748453010790873 -23.094675793495977 -7.318774298658263 3.7741531577222766e-7 2.5922136174040418 -0.000001825791954921121 -13.016413377758385 -54.168813169606956 18.423135146666976 -40.582919097260046 82.38794502030329 -37.33441404733138 4.411308923976326 -26.709618740205457 0.4914814438781891 3.205561474714218e-7 -0.8647062792011257 -6.723596895744119e-7
